<!-- Generator: Adobe Illustrator 18.0.0, SVG Export Plug-In  -->
<svg version="1.1"
	 xmlns="http://www.w3.org/2000/svg" xmlns:xlink="http://www.w3.org/1999/xlink" xmlns:a="http://ns.adobe.com/AdobeSVGViewerExtensions/3.0/"
	 x="0px" y="0px" width="50px" height="250px" viewBox="0 0 50 250" enable-background="new 0 0 50 250" xml:space="preserve">
<defs>
</defs>
<g>
	<rect x="0" fill="none" width="50" height="50"/>
	<g>
		<path fill="#FFCD05" d="M25,24.7c1.4,0,2.6-1.4,2.6-3.2c0-1.8-0.4-3.2-2.6-3.2s-2.6,1.4-2.6,3.2C22.4,23.2,23.6,24.7,25,24.7z"/>
		<path fill="#FFCD05" d="M20.1,29.5C20.1,29.4,20.1,29.5,20.1,29.5L20.1,29.5z"/>
		<path fill="#FFCD05" d="M29.9,29.6C29.9,29.6,29.9,29.4,29.9,29.6L29.9,29.6z"/>
		<path fill="#FFCD05" d="M30.5,29.5c-0.1-3.4-0.5-4.4-3.9-5c0,0-0.5,0.6-1.6,0.6s-1.6-0.6-1.6-0.6c-3.4,0.6-3.8,1.6-3.9,4.9
			c0,0.3,0,0.3,0,0.3c0,0.1,0,0.2,0,0.4c0,0,0.8,1.6,5.5,1.6s5.5-1.6,5.5-1.6c0-0.1,0-0.2,0-0.3C30.5,29.8,30.5,29.7,30.5,29.5z"/>
	</g>
	<rect x="0" y="50" fill="none" width="50" height="50"/>
	<g>
		<polygon fill="#FFFFFF" points="20.4,68.3 18.6,68.9 18.6,77.4 20.6,78.2 20.6,81.4 25,78.2 30.5,77.8 32,76.8 31.7,68.7 30,67.8 
					"/>
		<path fill="#F36C21" d="M21.8,72.7c0.5,0,1,0.4,1,1s-0.4,1-1,1s-1-0.4-1-1S21.2,72.7,21.8,72.7z M25,72.7c0.5,0,1,0.4,1,1
			s-0.4,1-1,1s-1-0.4-1-1S24.5,72.7,25,72.7z M28.3,72.7c0.5,0,1,0.4,1,1s-0.4,1-1,1s-1-0.4-1-1S27.8,72.7,28.3,72.7z M31.3,76.7
			c0,0.4-0.3,0.7-0.7,0.7h-5.9l-3.9,3.3v-3.4h-1.3c-0.4,0-0.7-0.3-0.7-0.7v-7.1c0-0.4,0.3-0.7,0.7-0.7h11.1c0.4,0,0.7,0.3,0.7,0.7
			V76.7z M30.6,67.4H19.5c-1.1,0-2,0.9-2,2v7.9c0,1.1,1.3,1.3,2,1.3v3.9l5.9-3.9h5.2c1.1,0,2-0.9,2-2v-7.2
			C32.6,68.3,31.7,67.4,30.6,67.4z"/>
	</g>
	<rect x="0" y="100" fill="none" width="50" height="50"/>
	<rect x="0" y="150" fill="none" width="50" height="50"/>
	<rect x="0" y="200" fill="none" width="50" height="50"/>
	<g>
		<rect x="17.5" y="119.6" fill="#FFFFFF" width="12.8" height="10.9"/>
		<g>
			<path fill="#1189AE" d="M31.2,120.9v-2.1H16.7v11.4c0,0.6,0.5,1,1,1h14c0.9,0,1.6-0.7,1.6-1.6v-8.7H31.2z M30.2,130.2H17.7v-10.4
				h12.4v10.4H30.2z M18.8,121.9h10.4v1H18.8V121.9z M25,124h4.1v1H25V124z M25,126.1h4.1v1H25V126.1z M25,128.1h3.1v1H25V128.1z
				 M18.8,124H24v5.2h-5.2V124z"/>
			<rect x="18.8" y="124" fill="#27B353" width="5.2" height="5.2"/>
			<rect x="18.8" y="121.9" fill="#094D84" width="10.4" height="1"/>
			<rect x="25" y="124" fill="#C0BFBF" width="4.1" height="1"/>
			<rect x="25" y="126.1" fill="#C0BFBF" width="4.1" height="1"/>
			<rect x="25" y="128.1" fill="#C0BFBF" width="3.2" height="1"/>
		</g>
	</g>
	<path fill="#FFD10D" d="M31.7,173.4l-4.6-0.6l-2-4.2l-2,4.2l-4.6,0.6l3.4,3.3l-0.8,4.6l4.1-2.1l4.1,2.1l-0.8-4.6L31.7,173.4z
		 M31.7,173.4l-4.6-0.6l-2-4.2l-2,4.2l-4.6,0.6l3.4,3.3l-0.8,4.6l4.1-2.1l4.1,2.1l-0.8-4.6L31.7,173.4z M25,178.1l-2.9,1.5l0.5-3.2
		l-2.3-2.3l3.3-0.4l1.4-2.9l1.4,2.9l3.3,0.4l-2.3,2.3l0.5,3.2L25,178.1L25,178.1z"/>
	<g>
		<path fill="#F3BA1A" d="M31.3,228.5c0-3.5-3.1-2.7-3.1-5.5c0-0.2,0-0.4-0.1-0.6c-0.2-1.4-1.1-2.5-2.3-2.8v-0.1
			c0-0.5-0.3-0.8-0.7-0.8s-0.8,0.3-0.8,0.7c0,0.1,0,0.1,0,0.1c-1.3,0.5-2.3,1.8-2.4,3.4c0,0,0,0,0,0.1c0,2.7-3.1,2-3.1,5.5
			c0,0.9,2.1,1.7,4.9,1.9c0.3,0.5,0.8,0.8,1.4,0.8c0.6,0,1.1-0.3,1.4-0.8C29.2,230.3,31.3,229.4,31.3,228.5L31.3,228.5L31.3,228.5z
			 M28.9,229.3c-0.7,0.2-1.4,0.3-2.3,0.4c0-0.9-0.7-1.5-1.5-1.5c-0.8,0-1.5,0.6-1.6,1.4c-0.8-0.1-1.6-0.2-2.3-0.4
			c-0.9-0.2-1.3-0.5-1.5-0.7c0.2-0.1,0.6-0.4,1.5-0.7c1.1-0.3,2.4-0.4,3.8-0.4s2.8,0.2,3.9,0.5c0.9,0.2,1.3,0.5,1.5,0.7
			C30.3,228.6,29.8,228.9,28.9,229.3L28.9,229.3z"/>
	</g>
</g>
</svg>
